<?xml version="1.0" encoding="UTF-8"?>
<svg xmlns="http://www.w3.org/2000/svg" xmlns:xlink="http://www.w3.org/1999/xlink" id="Layer_1" width="512px" height="512px" x="0px" y="0px" version="1.1" viewBox="0 0 512 512" xml:space="preserve">
  <path fill="#EE3124" d="M512,472c0,22.1-17.9,40-40,40H40c-22.1,0-40-17.9-40-40V40C0,17.9,17.9,0,40,0h432c22.1,0,40,17.9,40,40  V472z"></path>
  <path fill="#FFFFFF" d="M105,232.2c-2.7-2.8-5.7-4.8-8.9-6.2c-3.2-1.4-6.6-2.1-10.3-2.1c-7.9,0-14.6,3-20.2,9.1  c-5.5,6.1-8.3,13.8-8.3,23.3c0,9.1,2.8,16.8,8.6,22.9c5.7,6.2,12.5,9.2,20.3,9.2c3.5,0,6.7-0.6,9.7-1.9c3-1.3,6-3.3,8.9-6.2l0,6.5  l15.3,0v-61.4H105L105,232.2z M100.9,269.2c-3.2,3.4-7.1,5-11.9,5.1c-4.6,0-8.5-1.7-11.7-5.1c-3.2-3.4-4.8-7.8-4.7-13.1  c0-5.3,1.6-9.6,4.7-13c3.1-3.4,7-5.1,11.7-5.1c4.8,0,8.8,1.7,11.9,5c3.1,3.3,4.2,7.1,4.2,12.5C105.1,260.9,104.1,265.9,100.9,269.2z   M208,232.2c-2.7-2.8-5.7-4.8-8.9-6.2c-3.2-1.4-6.6-2.1-10.3-2.1c-7.9,0-14.6,3-20.2,9.1c-5.5,6.1-8.3,13.8-8.3,23.3  c0,9.1,2.8,16.8,8.6,22.9c5.7,6.2,12.5,9.2,20.3,9.2c3.5,0,6.7-0.6,9.7-1.9c3-1.3,6-3.3,8.9-6.2l0,6.5l15.3,0v-61.4H208L208,232.2z   M204,269.2c-3.1,3.4-7.1,5-11.9,5.1c-4.6,0-8.5-1.7-11.7-5.1c-3.2-3.4-4.8-7.8-4.7-13.1c0-5.3,1.6-9.6,4.7-13  c3.1-3.4,7-5.1,11.7-5.1c4.8,0,8.8,1.7,11.9,5c3.1,3.3,4.2,7.1,4.2,12.5C208.1,260.9,207.1,265.9,204,269.2z M315.3,227  c-3.3-2-7.1-3.1-11.4-3.1c-4.2,0-8,0.9-11.6,2.8c-3.5,1.9-6.5,4.7-8.9,8.3c-1.9-3.6-4.3-6.4-7.4-8.3c-3.1-1.9-6.5-2.9-10.3-2.9  c-3.8,0-7.2,0.7-10.4,2.2c-3.2,1.4-6.1,3.6-8.7,6.5v-7.1h-15.3l0,61.4h15.3l0-27.2c0-5.9,0.5-10.2,1.6-12.9c1-2.7,2.6-4.9,4.7-6.4  c2.1-1.5,4.4-2.3,6.9-2.3c2.3,0,4.2,0.6,5.9,1.8c1.6,1.2,2.8,3,3.6,5.5c0.8,2.5,1.2,6.4,1.2,11.9l0,29.6h15.3l0-27.6  c0-5.8,0.5-10.1,1.5-12.7c1-2.6,2.6-4.7,4.6-6.2c2.1-1.5,4.4-2.2,7.1-2.2c3.5,0,6,1.2,7.8,3.7c1.7,2.5,2.6,7.2,2.6,14.1l0,31h15.3  l0-35.9c0-7.4-0.7-12.7-2.1-16C321,231.7,318.6,229,315.3,227z M378,268.8c-4.1,4.1-9,6.1-14.7,6.1c-4.8,0-8.7-1.3-11.8-3.9  c-3.1-2.6-5-6.1-5.7-10.6l49.1,0l0.1-2.9c0-10.1-3-18.3-9-24.4c-6-6.2-13.8-9.2-23.4-9.3c-9,0-16.5,3.1-22.5,9.3c-6,6.2-9,14-9,23.3  c0,9.1,3,16.8,9,22.8c6,6.1,13.8,9.1,23.3,9.1c6.2,0,11.5-1.1,15.9-3.3c4.5-2.2,8.3-5.6,11.5-10.2L378,268.8z M352.2,240.5  c3.2-2.4,7-3.6,11.2-3.6c3.9,0,7.4,1.1,10.3,3.2c3,2.1,5,4.9,6,8.2l-33.1,0C348.3,244.6,350.2,242,352.2,240.5z M431.3,254.4  l20.7-28.9h-17.5l-12,16.7l-12-16.7h-17.7l20.9,29.1l-23.1,32.3h17.5l14.4-20.1l14.4,20.1h17.7L431.3,254.4z M157.1,223.6  c-2.8,0-5.3,0.5-7.4,1.6c-2,1-4.4,2.9-7,5.6l0-5.3h-14.6v61.4h15.3l0-31.9c0-11.7,3.2-17.6,11-17.6c1.4,0,2.7,0.3,4.1,0.8  c2.5-4.2,5.4-8.2,8.7-11.8C163.7,224.5,160.3,223.6,157.1,223.6z"></path>
</svg>
