<?xml version="1.0" encoding="utf-8"?>
<!-- Generator: Adobe Illustrator 24.2.1, SVG Export Plug-In . SVG Version: 6.00 Build 0)  -->
<svg version="1.1" id="Layer_1" xmlns="http://www.w3.org/2000/svg" xmlns:xlink="http://www.w3.org/1999/xlink" x="0px"
	 y="0px"
	 viewBox="0 0 44.9 44.3" style="enable-background:new 0 0 44.9 44.3;" xml:space="preserve">
<g>
	<path style="fill-rule:evenodd;clip-rule:evenodd;fill:#C1C1C1;" d="M13,33.3c-5.9,0-10.7-4.5-11.2-10.2H0
		c0.5,11.8,10.3,21.3,22.4,21.3c7.9,0,14.9-4.1,18.9-10.2c2.1-3.2,3.3-7,3.5-11.1H24.2C23.7,28.8,18.9,33.3,13,33.3L13,33.3z"/>
	<path style="fill-rule:evenodd;clip-rule:evenodd;fill:#7BC144;" d="M1.8,21.3C2.3,15.6,7.1,11.1,13,11.1c5.9,0,10.7,4.5,11.2,10.2
		h20.7C44.4,9.4,34.5,0,22.4,0C10.3,0,0.5,9.4,0,21.3H1.8"/>
</g>
</svg>
