<?xml version="1.0" encoding="utf-8"?>
<!-- Generator: Adobe Illustrator 24.2.1, SVG Export Plug-In . SVG Version: 6.00 Build 0)  -->
<svg version="1.1" id="Layer_1" xmlns="http://www.w3.org/2000/svg" xmlns:xlink="http://www.w3.org/1999/xlink" x="0px"
	 y="0px"
	 viewBox="0 0 62.7 74" style="enable-background:new 0 0 62.7 74;" xml:space="preserve">
<g>
	<g>
		<defs>
			<path id="SVGID_1_" d="M31.1,0.3l26.1,15.4c0.2,0.1,0.3,0.4,0.2,0.7l-0.2,0.2L39.8,27.8l3.1,4.4L59,22.3v33.3L29.6,73.9
				c-0.1,0.1-0.3,0.1-0.4,0l-0.1,0c-0.1,0-0.2,0-0.3-0.1L0,55.7V22.3l29.2,18.1l1-0.6L22.7,29l-20-12.4c-0.2-0.1-0.3-0.4-0.2-0.7
				l0.2-0.2L28.6,0.3C29.4-0.1,30.3-0.1,31.1,0.3L31.1,0.3z"/>
		</defs>
		<clipPath id="SVGID_2_">
			<use xlink:href="#SVGID_1_" style="overflow:visible;"/>
		</clipPath>

		<rect x="0" y="-0.1" style="clip-path:url(#SVGID_2_);fill-rule:evenodd;clip-rule:evenodd;fill:#EEEEEE;"
			  width="59" height="0.1"/>
		<rect x="0" y="0" style="clip-path:url(#SVGID_2_);fill-rule:evenodd;clip-rule:evenodd;fill:#EEEEEE;" width="59"
			  height="3.4"/>

		<rect x="0" y="3.4" style="clip-path:url(#SVGID_2_);fill-rule:evenodd;clip-rule:evenodd;fill:#EDEDED;"
			  width="59" height="3.4"/>

		<rect x="0" y="6.7" style="clip-path:url(#SVGID_2_);fill-rule:evenodd;clip-rule:evenodd;fill:#ECECEC;"
			  width="59" height="3.4"/>

		<rect x="0" y="10.1" style="clip-path:url(#SVGID_2_);fill-rule:evenodd;clip-rule:evenodd;fill:#EBEBEB;"
			  width="59" height="3.4"/>

		<rect x="0" y="13.4" style="clip-path:url(#SVGID_2_);fill-rule:evenodd;clip-rule:evenodd;fill:#EAEAEA;"
			  width="59" height="3.4"/>

		<rect x="0" y="16.8" style="clip-path:url(#SVGID_2_);fill-rule:evenodd;clip-rule:evenodd;fill:#E9E9E9;"
			  width="59" height="3.4"/>

		<rect x="0" y="20.2" style="clip-path:url(#SVGID_2_);fill-rule:evenodd;clip-rule:evenodd;fill:#E8E8E8;"
			  width="59" height="3.4"/>

		<rect x="0" y="23.5" style="clip-path:url(#SVGID_2_);fill-rule:evenodd;clip-rule:evenodd;fill:#E7E7E7;"
			  width="59" height="3.4"/>

		<rect x="0" y="26.9" style="clip-path:url(#SVGID_2_);fill-rule:evenodd;clip-rule:evenodd;fill:#E6E6E6;"
			  width="59" height="3.4"/>

		<rect x="0" y="30.3" style="clip-path:url(#SVGID_2_);fill-rule:evenodd;clip-rule:evenodd;fill:#E5E5E5;"
			  width="59" height="3.4"/>

		<rect x="0" y="33.6" style="clip-path:url(#SVGID_2_);fill-rule:evenodd;clip-rule:evenodd;fill:#E4E4E4;"
			  width="59" height="3.4"/>

		<rect x="0" y="37" style="clip-path:url(#SVGID_2_);fill-rule:evenodd;clip-rule:evenodd;fill:#E2E2E2;" width="59"
			  height="3.4"/>

		<rect x="0" y="40.3" style="clip-path:url(#SVGID_2_);fill-rule:evenodd;clip-rule:evenodd;fill:#E1E1E1;"
			  width="59" height="3.4"/>

		<rect x="0" y="43.7" style="clip-path:url(#SVGID_2_);fill-rule:evenodd;clip-rule:evenodd;fill:#E0E0E0;"
			  width="59" height="3.4"/>

		<rect x="0" y="47.1" style="clip-path:url(#SVGID_2_);fill-rule:evenodd;clip-rule:evenodd;fill:#DFDFDF;"
			  width="59" height="3.4"/>

		<rect x="0" y="50.4" style="clip-path:url(#SVGID_2_);fill-rule:evenodd;clip-rule:evenodd;fill:#DEDEDE;"
			  width="59" height="3.4"/>

		<rect x="0" y="53.8" style="clip-path:url(#SVGID_2_);fill-rule:evenodd;clip-rule:evenodd;fill:#DDDDDD;"
			  width="59" height="3.4"/>

		<rect x="0" y="57.2" style="clip-path:url(#SVGID_2_);fill-rule:evenodd;clip-rule:evenodd;fill:#DCDCDC;"
			  width="59" height="3.4"/>

		<rect x="0" y="60.5" style="clip-path:url(#SVGID_2_);fill-rule:evenodd;clip-rule:evenodd;fill:#DBDBDB;"
			  width="59" height="3.4"/>

		<rect x="0" y="63.9" style="clip-path:url(#SVGID_2_);fill-rule:evenodd;clip-rule:evenodd;fill:#DADADA;"
			  width="59" height="3.4"/>

		<rect x="0" y="67.2" style="clip-path:url(#SVGID_2_);fill-rule:evenodd;clip-rule:evenodd;fill:#D9D9D9;"
			  width="59" height="3.4"/>

		<rect x="0" y="70.6" style="clip-path:url(#SVGID_2_);fill-rule:evenodd;clip-rule:evenodd;fill:#D8D8D8;"
			  width="59" height="3.4"/>
	</g>
	<g>
		<defs>
			<path id="SVGID_3_" d="M31.1,0.3l26.1,15.4c0.2,0.1,0.3,0.4,0.2,0.7l-0.2,0.2L39.8,27.8l3.1,4.4L59,22.3v33.3L29.6,73.9
				c-0.1,0.1-0.3,0.1-0.4,0l-0.1,0c-0.1,0-0.2,0-0.3-0.1L0,55.7V22.3l29.2,18.1l1-0.6L22.7,29l-20-12.4c-0.2-0.1-0.3-0.4-0.2-0.7
				l0.2-0.2L28.6,0.3C29.4-0.1,30.3-0.1,31.1,0.3L31.1,0.3z"/>
		</defs>
		<clipPath id="SVGID_4_">
			<use xlink:href="#SVGID_3_" style="overflow:visible;"/>
		</clipPath>
		<polygon style="clip-path:url(#SVGID_4_);fill-rule:evenodd;clip-rule:evenodd;fill:#E6702F;"
				 points="0,12.9 42,74 0,74 		"/>
		<polygon style="clip-path:url(#SVGID_4_);fill-rule:evenodd;clip-rule:evenodd;fill:#E6702F;" points="0,11.8 42.8,74 42,74
			0,12.9 		"/>
		<polygon style="clip-path:url(#SVGID_4_);fill-rule:evenodd;clip-rule:evenodd;fill:#E6712F;" points="0,10.7 43.6,74 42.8,74
			0,11.8 		"/>
		<polygon style="clip-path:url(#SVGID_4_);fill-rule:evenodd;clip-rule:evenodd;fill:#E6722F;" points="0,9.6 44.3,74 43.6,74
			0,10.7 		"/>
		<polygon style="clip-path:url(#SVGID_4_);fill-rule:evenodd;clip-rule:evenodd;fill:#E67330;" points="0,8.5 45.1,74 44.3,74
			0,9.6 		"/>
		<polygon style="clip-path:url(#SVGID_4_);fill-rule:evenodd;clip-rule:evenodd;fill:#E77430;" points="0,7.4 45.8,74 45.1,74
			0,8.5 		"/>
		<polygon style="clip-path:url(#SVGID_4_);fill-rule:evenodd;clip-rule:evenodd;fill:#E77530;" points="0,6.3 46.6,74 45.8,74
			0,7.4 		"/>
		<polygon style="clip-path:url(#SVGID_4_);fill-rule:evenodd;clip-rule:evenodd;fill:#E77630;" points="0,5.2 47.3,74 46.6,74
			0,6.3 		"/>
		<polygon style="clip-path:url(#SVGID_4_);fill-rule:evenodd;clip-rule:evenodd;fill:#E77731;" points="0,4.1 48.1,74 47.3,74
			0,5.2 		"/>
		<polygon style="clip-path:url(#SVGID_4_);fill-rule:evenodd;clip-rule:evenodd;fill:#E77831;" points="0,3 48.9,74 48.1,74 0,4.1
					"/>
		<polygon style="clip-path:url(#SVGID_4_);fill-rule:evenodd;clip-rule:evenodd;fill:#E77931;" points="0,1.9 49.6,74 48.9,74 0,3
					"/>
		<polygon style="clip-path:url(#SVGID_4_);fill-rule:evenodd;clip-rule:evenodd;fill:#E77A31;" points="0,0.8 50.4,74 49.6,74
			0,1.9 		"/>
		<polygon style="clip-path:url(#SVGID_4_);fill-rule:evenodd;clip-rule:evenodd;fill:#E87B32;" points="0.1,-0.1 51.1,74 50.4,74
			0,0.8 0,-0.1 		"/>
		<polygon style="clip-path:url(#SVGID_4_);fill-rule:evenodd;clip-rule:evenodd;fill:#E87C32;" points="0.9,-0.1 51.9,74 51.1,74
			0.1,-0.1 		"/>
		<polygon style="clip-path:url(#SVGID_4_);fill-rule:evenodd;clip-rule:evenodd;fill:#E87D32;" points="1.6,-0.1 52.6,74 51.9,74
			0.9,-0.1 		"/>
		<polygon style="clip-path:url(#SVGID_4_);fill-rule:evenodd;clip-rule:evenodd;fill:#E87E32;" points="2.4,-0.1 53.4,74 52.6,74
			1.6,-0.1 		"/>
		<polygon style="clip-path:url(#SVGID_4_);fill-rule:evenodd;clip-rule:evenodd;fill:#E87F33;" points="3.1,-0.1 54.2,74 53.4,74
			2.4,-0.1 		"/>
		<polygon style="clip-path:url(#SVGID_4_);fill-rule:evenodd;clip-rule:evenodd;fill:#E88033;" points="3.9,-0.1 54.9,74 54.2,74
			3.1,-0.1 		"/>
		<polygon style="clip-path:url(#SVGID_4_);fill-rule:evenodd;clip-rule:evenodd;fill:#E88133;" points="4.6,-0.1 55.7,74 54.9,74
			3.9,-0.1 		"/>
		<polygon style="clip-path:url(#SVGID_4_);fill-rule:evenodd;clip-rule:evenodd;fill:#E98233;" points="5.4,-0.1 56.4,74 55.7,74
			4.6,-0.1 		"/>
		<polygon style="clip-path:url(#SVGID_4_);fill-rule:evenodd;clip-rule:evenodd;fill:#E98334;" points="6.2,-0.1 57.2,74 56.4,74
			5.4,-0.1 		"/>
		<polygon style="clip-path:url(#SVGID_4_);fill-rule:evenodd;clip-rule:evenodd;fill:#E98434;" points="6.9,-0.1 57.9,74 57.2,74
			6.2,-0.1 		"/>
		<polygon style="clip-path:url(#SVGID_4_);fill-rule:evenodd;clip-rule:evenodd;fill:#E98534;" points="7.7,-0.1 58.7,74 57.9,74
			6.9,-0.1 		"/>
		<polygon style="clip-path:url(#SVGID_4_);fill-rule:evenodd;clip-rule:evenodd;fill:#E98634;" points="8.4,-0.1 59,73.4 59,74
			58.7,74 7.7,-0.1 		"/>
		<polygon style="clip-path:url(#SVGID_4_);fill-rule:evenodd;clip-rule:evenodd;fill:#E98735;" points="9.2,-0.1 59,72.3 59,73.4
			8.4,-0.1 		"/>
		<polygon style="clip-path:url(#SVGID_4_);fill-rule:evenodd;clip-rule:evenodd;fill:#E98835;" points="9.9,-0.1 59,71.2 59,72.3
			9.2,-0.1 		"/>
		<polygon style="clip-path:url(#SVGID_4_);fill-rule:evenodd;clip-rule:evenodd;fill:#EA8935;" points="10.7,-0.1 59,70.1 59,71.2
			9.9,-0.1 		"/>
		<polygon style="clip-path:url(#SVGID_4_);fill-rule:evenodd;clip-rule:evenodd;fill:#EA8A35;" points="11.5,-0.1 59,69 59,70.1
			10.7,-0.1 		"/>
		<polygon style="clip-path:url(#SVGID_4_);fill-rule:evenodd;clip-rule:evenodd;fill:#EA8B36;" points="12.2,-0.1 59,67.9 59,69
			11.5,-0.1 		"/>
		<polygon style="clip-path:url(#SVGID_4_);fill-rule:evenodd;clip-rule:evenodd;fill:#EA8C36;" points="13,-0.1 59,66.8 59,67.9
			12.2,-0.1 		"/>
		<polygon style="clip-path:url(#SVGID_4_);fill-rule:evenodd;clip-rule:evenodd;fill:#EA8D36;" points="13.7,-0.1 59,65.7 59,66.8
			13,-0.1 		"/>
		<polygon style="clip-path:url(#SVGID_4_);fill-rule:evenodd;clip-rule:evenodd;fill:#EA8E36;" points="14.5,-0.1 59,64.6 59,65.7
			13.7,-0.1 		"/>
		<polygon style="clip-path:url(#SVGID_4_);fill-rule:evenodd;clip-rule:evenodd;fill:#EB9037;" points="15.2,-0.1 59,63.5 59,64.6
			14.5,-0.1 		"/>
		<polygon style="clip-path:url(#SVGID_4_);fill-rule:evenodd;clip-rule:evenodd;fill:#EB9137;" points="16,-0.1 59,62.4 59,63.5
			15.2,-0.1 		"/>
		<polygon style="clip-path:url(#SVGID_4_);fill-rule:evenodd;clip-rule:evenodd;fill:#EB9237;" points="16.8,-0.1 59,61.3 59,62.4
			16,-0.1 		"/>
		<polygon style="clip-path:url(#SVGID_4_);fill-rule:evenodd;clip-rule:evenodd;fill:#EB9337;" points="17.5,-0.1 59,60.2 59,61.3
			16.8,-0.1 		"/>
		<polygon style="clip-path:url(#SVGID_4_);fill-rule:evenodd;clip-rule:evenodd;fill:#EB9437;" points="18.3,-0.1 59,59.1 59,60.2
			17.5,-0.1 		"/>
		<polygon style="clip-path:url(#SVGID_4_);fill-rule:evenodd;clip-rule:evenodd;fill:#EB9538;" points="19,-0.1 59,58 59,59.1
			18.3,-0.1 		"/>
		<polygon style="clip-path:url(#SVGID_4_);fill-rule:evenodd;clip-rule:evenodd;fill:#EB9638;" points="19.8,-0.1 59,56.9 59,58
			19,-0.1 		"/>
		<polygon style="clip-path:url(#SVGID_4_);fill-rule:evenodd;clip-rule:evenodd;fill:#EC9738;" points="20.5,-0.1 59,55.8 59,56.9
			19.8,-0.1 		"/>
		<polygon style="clip-path:url(#SVGID_4_);fill-rule:evenodd;clip-rule:evenodd;fill:#EC9838;" points="21.3,-0.1 59,54.7 59,55.8
			20.5,-0.1 		"/>
		<polygon style="clip-path:url(#SVGID_4_);fill-rule:evenodd;clip-rule:evenodd;fill:#EC9939;" points="22.1,-0.1 59,53.6 59,54.7
			21.3,-0.1 		"/>
		<polygon style="clip-path:url(#SVGID_4_);fill-rule:evenodd;clip-rule:evenodd;fill:#EC9A39;" points="22.8,-0.1 59,52.5 59,53.6
			22.1,-0.1 		"/>
		<polygon style="clip-path:url(#SVGID_4_);fill-rule:evenodd;clip-rule:evenodd;fill:#EC9B39;" points="23.6,-0.1 59,51.4 59,52.5
			22.8,-0.1 		"/>
		<polygon style="clip-path:url(#SVGID_4_);fill-rule:evenodd;clip-rule:evenodd;fill:#EC9C39;" points="24.3,-0.1 59,50.3 59,51.4
			23.6,-0.1 		"/>
		<polygon style="clip-path:url(#SVGID_4_);fill-rule:evenodd;clip-rule:evenodd;fill:#EC9D3A;" points="25.1,-0.1 59,49.2 59,50.3
			24.3,-0.1 		"/>
		<polygon style="clip-path:url(#SVGID_4_);fill-rule:evenodd;clip-rule:evenodd;fill:#ED9E3A;" points="25.8,-0.1 59,48.1 59,49.2
			25.1,-0.1 		"/>
		<polygon style="clip-path:url(#SVGID_4_);fill-rule:evenodd;clip-rule:evenodd;fill:#ED9F3A;" points="26.6,-0.1 59,47 59,48.1
			25.8,-0.1 		"/>
		<polygon style="clip-path:url(#SVGID_4_);fill-rule:evenodd;clip-rule:evenodd;fill:#EDA03A;" points="27.4,-0.1 59,45.9 59,47
			26.6,-0.1 		"/>
		<polygon style="clip-path:url(#SVGID_4_);fill-rule:evenodd;clip-rule:evenodd;fill:#EDA13B;" points="28.1,-0.1 59,44.8 59,45.9
			27.4,-0.1 		"/>
		<polygon style="clip-path:url(#SVGID_4_);fill-rule:evenodd;clip-rule:evenodd;fill:#EDA23B;" points="28.9,-0.1 59,43.7 59,44.8
			28.1,-0.1 		"/>
		<polygon style="clip-path:url(#SVGID_4_);fill-rule:evenodd;clip-rule:evenodd;fill:#EDA33B;" points="29.6,-0.1 59,42.6 59,43.7
			28.9,-0.1 		"/>
		<polygon style="clip-path:url(#SVGID_4_);fill-rule:evenodd;clip-rule:evenodd;fill:#EDA43B;" points="30.4,-0.1 59,41.5 59,42.6
			29.6,-0.1 		"/>
		<polygon style="clip-path:url(#SVGID_4_);fill-rule:evenodd;clip-rule:evenodd;fill:#EEA53C;" points="31.1,-0.1 59,40.4 59,41.5
			30.4,-0.1 		"/>
		<polygon style="clip-path:url(#SVGID_4_);fill-rule:evenodd;clip-rule:evenodd;fill:#EEA63C;" points="31.9,-0.1 59,39.3 59,40.4
			31.1,-0.1 		"/>
		<polygon style="clip-path:url(#SVGID_4_);fill-rule:evenodd;clip-rule:evenodd;fill:#EEA73C;" points="32.7,-0.1 59,38.2 59,39.3
			31.9,-0.1 		"/>
		<polygon style="clip-path:url(#SVGID_4_);fill-rule:evenodd;clip-rule:evenodd;fill:#EEA83C;" points="33.4,-0.1 59,37.1 59,38.2
			32.7,-0.1 		"/>
		<polygon style="clip-path:url(#SVGID_4_);fill-rule:evenodd;clip-rule:evenodd;fill:#EEA93D;" points="34.2,-0.1 59,36 59,37.1
			33.4,-0.1 		"/>
		<polygon style="clip-path:url(#SVGID_4_);fill-rule:evenodd;clip-rule:evenodd;fill:#EEAA3D;" points="34.9,-0.1 59,34.9 59,36
			34.2,-0.1 		"/>
		<polygon style="clip-path:url(#SVGID_4_);fill-rule:evenodd;clip-rule:evenodd;fill:#EEAB3D;" points="35.7,-0.1 59,33.8 59,34.9
			34.9,-0.1 		"/>
		<polygon style="clip-path:url(#SVGID_4_);fill-rule:evenodd;clip-rule:evenodd;fill:#EFAC3D;" points="36.4,-0.1 59,32.7 59,33.8
			35.7,-0.1 		"/>
		<polygon style="clip-path:url(#SVGID_4_);fill-rule:evenodd;clip-rule:evenodd;fill:#EFAD3E;" points="37.2,-0.1 59,31.6 59,32.7
			36.4,-0.1 		"/>
		<polygon style="clip-path:url(#SVGID_4_);fill-rule:evenodd;clip-rule:evenodd;fill:#EFAE3E;" points="38,-0.1 59,30.5 59,31.6
			37.2,-0.1 		"/>
		<polygon style="clip-path:url(#SVGID_4_);fill-rule:evenodd;clip-rule:evenodd;fill:#EFAF3E;" points="38.7,-0.1 59,29.4 59,30.5
			38,-0.1 		"/>
		<polygon style="clip-path:url(#SVGID_4_);fill-rule:evenodd;clip-rule:evenodd;fill:#EFAF3E;" points="59,29.4 38.7,-0.1 59,-0.1
					"/>
	</g>
	<path style="fill-rule:evenodd;clip-rule:evenodd;fill:#F4F4F5;" d="M38.9,27.9l18.9-12.2c1.4-0.9,3.3-0.6,4.3,0.8
		c0.9,1.3,0.6,3-0.6,3.9l-0.2,0.1L42.5,32.3c-1.4,0.9-3.2,0.6-4.2-0.7c-0.9-1.1-0.7-2.7,0.4-3.6L38.9,27.9z M27,38.7v24.8
		c0,0.3,0.2,0.7,0.5,0.8l1.9,1.1c0.3,0.2,0.6,0.2,0.9,0.1l2.8-1.2c0.4-0.1,0.6-0.5,0.6-0.9V36.5c0-0.7-0.4-1.3-0.9-1.6L2.2,16.4v7.1
		L27,38.7z"/>
</g>
</svg>
