<svg xmlns="http://www.w3.org/2000/svg" width="512" height="512" viewBox="0 0 512 512"><path fill="#224099" d="M512 472c0 22.1-17.9 40-40 40H40c-22.1 0-40-17.9-40-40V40C0 17.9 17.9 0 40 0h432c22.1 0 40 17.9 40 40v432z"/><path fill-rule="evenodd" clip-rule="evenodd" fill="#FFF" d="M98.8 200.4h3.8c5.1.4 9.8 1.3 13.7 2.9-1.1 5.2-2.7 10-3.8 15.3-3.7-1.1-8.5-2.8-13.2-1.7-1.1 2-1.2 5.1-1.9 7.6h13.9c-1.1 5.5-2.7 10.5-4 15.8H94.7c-2.4 11.7-4.2 24.4-6.3 36.2-1.1 6.1-2.3 11.3-5 16-2.6 4.7-6 8.2-9.7 11.8-4.3-3.6-8.3-7.3-12.2-11.2 1.9-2.3 4-4 5.5-6.7 1.6-2.9 1.9-7 2.7-11.1 2.1-11.3 4.3-24.1 6.3-35.1-2.5-.1-5.5.2-7.6-.2.8-5.3 1.8-10.4 2.7-15.6h7.6c1.8-12.9 5.4-24 20.1-24z"/><path fill="#FFF" d="M142.2 222.6c-7.8 0-27.4 1.1-30.8 15.2-3.3 14.1-6.5 29.9-6.5 29.9s-2.4 15.8 7.2 17.6 15.4 1.9 25.2-6.9l.4 7.6H155l10-59.2c0 .1-15-4.2-22.8-4.2zm-3.3 41.9s-4.3 5.4-13.4 4.3l3.3-22.6s.2-8 13.5-5.4l-3.4 23.7z"/><path fill="#D32929" d="M370.3 222.6c-7.8 0-27.4 1.1-30.8 15.2-3.3 14.1-6.5 29.9-6.5 29.9s-2.4 15.8 7.2 17.6c9.6 1.9 15.4 1.9 25.2-6.9l.4 7.6H383l10-59.2c.1.1-14.9-4.2-22.7-4.2zm-3.4 41.9s-4.3 5.4-13.4 4.3l3.3-22.6s.2-8 13.5-5.4l-3.4 23.7z"/><path fill="#FFF" d="M207.8 226l-3 15.6s-18.4-5-20.8-1.1c-2.4 3.9 9.6 5.9 15.2 12.4s5 7.8 4.6 12.8-.6 18.2-19.1 20.4c-18.5 2.2-26.7-3.5-26.7-3.5l3.9-15.4s21.7 6.7 22.3 1.5c.6-5.2-8.9-8.2-8.9-8.2s-10.9-2.4-10.9-17.1c0-14.6 13.2-19.8 13.2-19.8s16.1-2.8 30.2 2.4zM222.3 210l21.3-3-3.5 17.2h14.5l-4.8 15.9-13 .4-4.6 28.6s6.7 0 9.6-2.6l5.2 14.6s-23.9 11.1-31.9 2.2c-8-8.9 2-43 2-43l-8.7.4 2.8-17.1 8.9.2 2.2-13.8z"/><path fill="#D32929" d="M255.9 226l18.7-2.6s3.2 23.9 2.8 33.4l11.3-19.3-3.2-10.9 19.7-3 5.7 33.4 5.4-20s0-9.8-1.1-10.6l18.9-3.7s3.3 8.9 1.5 16.5c-1.9 7.6-15 46.4-15 46.4h-22.3l-4.5-23.4-13.2 23.7h-21.3c.1 0-.7-57.7-3.4-59.9zM395.5 225.4l19.7-2.2 4.1 38 11.1-25.6s1.1-8.2-1.1-9.8l19.7-3.3s3 9.6.6 16.9c-2.4 7.2-23.6 51.9-23.6 51.9s-3.7 13.2-29.3 20.4l-5.6-14.8s16.1-7 16.1-10.9l-3.9-.2-7.8-60.4z"/></svg>