<svg width="32" height="32" viewBox="0 0 32 32" xmlns="http://www.w3.org/2000/svg"><title>interparcel-au</title><g fill="none" fill-rule="evenodd"><path d="M32 29.5a2.5 2.5 0 0 1-2.5 2.5h-27A2.5 2.5 0 0 1 0 29.5v-27A2.5 2.5 0 0 1 2.5 0h27A2.5 2.5 0 0 1 32 2.5v27z" fill="#F1F1F2"/><rect stroke="#979797" stroke-width=".1" fill="#4479B2" x="1.05" y="1.05" width="29.9" height="29.9" rx="2"/><g fill="#FFF"><path d="M4.7 11.497V7.315h-.923v4.182H4.7zm2.009 0V8.978c.032-.332.146-.59.34-.77a.845.845 0 0 1 .6-.242c.631 0 .947.34.947 1.029v2.502h.924V8.914c0-1.15-.527-1.718-1.572-1.718-.25 0-.478.049-.688.154a1.673 1.673 0 0 0-.551.446V7.31h-.923v4.187h.923zm5.988.273v-.853h-.55c-.156 0-.27.01-.276 0-.006-.01 0-.17 0-.3V8.252h.932V7.49h-.932V6h-.923v1.49h-.754v.762h.754v2.365c0 .163.009 1.162 0 1.153.007.008.59.008 1.75 0zm2.28-.16c.558 0 1.02-.161 1.393-.477.291-.26.486-.591.583-.98h-.924c-.113.235-.234.405-.372.51-.178.13-.405.195-.689.195-.332 0-.591-.106-.77-.308-.177-.203-.283-.502-.315-.891h3.135c0-.754-.17-1.345-.503-1.766-.364-.47-.89-.697-1.58-.697-.623 0-1.117.211-1.473.64-.373.421-.551.94-.551 1.564 0 .696.194 1.239.583 1.636.365.38.859.575 1.482.575zm1.077-2.648h-2.155c.057-.332.17-.583.34-.753.179-.178.413-.26.721-.26.648 0 1.013.333 1.094 1.013zM4.779 19.61v-2.18c.34.454.761.69 1.247.69.6 0 1.301-.22 1.641-.657.316-.405.478-.915.478-1.53 0-.649-.162-1.167-.486-1.572-.43-.527-1.066-.656-1.681-.656-.551 0-1.038.27-1.264.559v-.446h-.858v5.792h.923zm1.029-2.236a.902.902 0 0 1-.737-.365c-.22-.267-.324-.623-.324-1.06v-.065c0-.422.145-.749.324-1 .194-.291 1.277-.544 1.823.11.154.242.303.452.303.938.109 1.313-.984 1.442-1.39 1.442zm9.39.974v-2.219c0-.356.105-.64.332-.859.194-.194.338-.283.78-.283.038 0 .02-.94 0-.94-.259 0-.529.073-.715.227a1.426 1.426 0 0 0-.397.486v-.6h-.915v4.188h.915zm3.912-6.704v-2.22c0-.356.105-.64.332-.858.194-.195.338-.284.78-.284.038 0 .02-.94 0-.94-.26 0-.53.073-.715.227a1.426 1.426 0 0 0-.397.486v-.599h-.916v4.188h.916zm-.52 6.818c.543 0 1.036-.065 1.36-.332.332-.276.737-.68.915-1.337h-.915c-.173.535-.736.916-1.352.916-.356 0-.624-.13-.802-.381-.194-.26-.283-.624-.283-1.086 0-.453.097-.81.291-1.06.195-.26.462-.381.802-.381.276 0 .502.064.672.194.162.13.276.324.333.591h.915c-.081-.526-.292-.915-.624-1.174-.324-.243-.753-.365-1.296-.365-.656 0-1.166.22-1.53.656-.341.397-.511.916-.511 1.548 0 .648.17 1.174.518 1.58.357.42.859.63 1.507.63zm4.819 0c.558 0 1.02-.162 1.393-.478.291-.26.486-.591.583-.98h-.923c-.114.235-.235.405-.373.51-.178.13-.405.195-.689.195-.332 0-.59-.106-.77-.308-.177-.203-.283-.502-.315-.891h3.135c0-.754-.17-1.345-.502-1.766-.365-.47-.891-.697-1.58-.697-.624 0-1.118.211-1.474.64-.373.421-.551.94-.551 1.564 0 .696.194 1.239.583 1.636.365.38.859.575 1.483.575zm1.077-2.649H22.33c.057-.332.17-.583.34-.753.179-.178.414-.26.721-.26.648 0 1.013.333 1.094 1.013zm3.012 2.535v-5.896h-.923v5.896h.923zm-20.75 6.964c.543 0 1.191-.138 1.515-.405.333-.276.746-.697.843-1.264H8.19c-.072.608-.818.916-1.433.916-.357 0-.624-.13-.802-.381-.195-.26-.284-.624-.284-1.086 0-.453.098-.81.292-1.06.194-.26.462-.381.802-.381.275 0 .695.064.865.194.162.13.275.324.332.591h.915c-.08-.526-.291-.915-.624-1.174-.324-.243-.945-.365-1.488-.365-.656 0-1.167.22-1.531.656-.34.397-.51.916-.51 1.548 0 .648.17 1.174.518 1.58.356.42.859.63 1.507.63zm4.94 0c.633 0 1.15-.21 1.54-.632.372-.405.567-.931.567-1.571 0-.648-.195-1.175-.575-1.588-.39-.421-.9-.624-1.531-.624-.64 0-1.15.203-1.531.624-.389.413-.575.94-.575 1.588 0 .64.186 1.166.567 1.571.389.421.899.632 1.539.632zm0-.753c-.388 0-.68-.154-.89-.454-.178-.26-.268-.591-.268-.996s.09-.746.268-1.005c.21-.308.502-.453.89-.453.381 0 .681.145.892.453.178.26.275.6.275 1.005 0 .397-.097.729-.275.996-.21.3-.51.454-.891.454zm4.155.64v-2.512c0-.275.081-.518.243-.712a.758.758 0 0 1 .64-.308c.55 0 .826.316.826.956v2.575h.924v-2.56c0-.307.073-.542.235-.712a.71.71 0 0 1 .567-.26c.324 0 .55.074.696.228.138.145.21.388.21.72v2.584h.924v-2.745c0-.462-.146-.835-.421-1.126-.292-.292-.648-.43-1.077-.43-.284 0-.519.049-.705.146-.21.097-.413.276-.608.535-.267-.454-.704-.68-1.32-.68-.405 0-.786.178-1.134.542v-.43h-.923v4.188h.923z" fill-rule="nonzero"/><path fill-rule="nonzero" d="M7.997 20.933h1.162v1.505H7.997zM19.608 14.083h1.162v1.504h-1.162zM14.297 21.011h1.162v.937h-1.162zM25.789 12.45h1.162v1h-1.162zM25.79 17.41h2.071v.937h-2.072zM14.297 24.26h2.237v.937h-2.237zM5.524 10.833h2.08v.937h-2.08zM8.224 10.833h2.08v.937h-2.08zM17.045 24.26h2.065v.937h-2.065z"/><path d="M3.189 24.117h1v1h-1z"/><path fill-rule="nonzero" d="M19.53 24.26h2.238v.937H19.53zM13.828 13.838h1.373v.937h-1.373zM17.428 7.457h1.373v.937h-1.373zM5.4 7.31h.625v.937H5.4zM3.197 7.315h.624v.937h-.624zM12 13.837h1.472v1H12zM3 13.818h1.472v.937H3zM3 18.671h2.372v.938H3zM12 17.428h1.472v1H12z"/><path fill-rule="nonzero" d="M12 13.838h.9v3.919H12z"/><path d="M10.65 13.753a2.25 2.25 0 1 1 0 4.5 2.25 2.25 0 0 1 0-4.5zm0 .9a1.35 1.35 0 1 0 0 2.7 1.35 1.35 0 0 0 0-2.7z"/><path fill-rule="nonzero" d="M13.788 17.41h2.043v.937h-2.043zM17.574 10.884h2.043v.937h-2.043zM3.174 10.884h2.043v.937H3.174z"/></g></g></svg>