<svg xmlns="http://www.w3.org/2000/svg" width="512" height="512" viewBox="0 0 512 512"><path fill="#EC1C24" d="M512 472c0 22.1-17.9 40-40 40H40c-22.1 0-40-17.9-40-40V40C0 17.9 17.9 0 40 0h432c22.1 0 40 17.9 40 40v432z"/><path fill="#FFF" d="M267.6 80.4c40.8 0 78.8 12.3 110.4 33.4-32.9-28.1-75.4-45.2-122-45.2-103.5 0-187.4 83.9-187.4 187.4 0 4.2.3 8.3.6 12.3 5.7-104.7 92.2-187.9 198.4-187.9z"/><path fill="#231F20" d="M244.4 431.6c-40.8 0-78.8-12.3-110.3-33.4 32.8 28.2 75.3 45.3 121.9 45.3 103.5 0 187.4-83.9 187.4-187.4 0-4.2-.4-8.2-.6-12.3-5.7 104.6-92.2 187.8-198.4 187.8z"/><path fill="#FFF" d="M253.2 278c12.2 0 25.8-10.4 25.8-10.4s50.9-36.5 73.1-51.4c22.2-15 34.3-21.2 34.3-33.8 0-12.6-9.6-14-27.5-14H202s12.5 30.4 43 30.4h69.1l-59.9 40.1-91.8-70.5h-36.9V312c0 17.5 14.2 31.6 31.6 31.6h196.8c17.5 0 31.7-14.2 31.7-31.6v-94.4c-18.8 9.2-33.9 16.9-33.9 36.7v46.4c0 6.1-4.9 11-11 11H170.3c-6.1 0-11-4.9-11-11v-88.9l68.7 56c.1 0 12.8 10.2 25.2 10.2z"/></svg>