<svg xmlns="http://www.w3.org/2000/svg" width="512" height="512" viewBox="0 0 512 512"><path fill="#0198BB" d="M512 472c0 22.094-17.906 40-40 40H40c-22.09 0-40-17.906-40-40V40C0 17.91 17.91 0 40 0h432c22.094 0 40 17.91 40 40v432z"/><g fill="#FFF"><path d="M26.385 229.523h20.017l-.014 4.67c9.081-9.725 32.904-10.395 40.17 9.391 4.481 11.783 3.636 23.212-4.879 33.163-8.983 10.497-25.763 10.689-35.354 3.91v18.593c-6.045 0-19.94-.015-19.94-.015.063-22.653 0-47.058 0-69.712zm19.501 26.934c-.085 6.509 4.422 11.207 10.863 11.323 6.143.111 10.902-4.449 11.002-10.542.114-7.046-4.115-11.773-10.624-11.873-6.587-.1-11.153 4.406-11.241 11.092zM485.615 283.833h-19.99v-5.085c-1.136.943-2.058 1.815-3.055 2.543-9.355 6.817-24.195 5.216-32.137-3.447-9.929-10.832-9.882-30.529-.121-41.466 9.603-10.586 25.931-11.256 35.305-3.873 0-4.801.008-15.844.008-15.844s12.318-2.454 17.625-3.489c.305-.06 2.365-.423 2.365-.423-.053 23.213 0 47.872 0 71.084zm-41.361-27.311c-.005 6.661 4.41 11.299 10.788 11.333 6.521.036 11.052-4.572 11.078-11.264.024-6.512-4.517-11.069-11.028-11.066-6.439.002-10.833 4.461-10.838 10.997zM346.439 227.677c6.088.093 11.204.947 16.076 3.033 11.478 4.915 17.515 15.391 16.516 27.865-1.194 14.915-11.341 23.572-24.721 26.093-7.949 1.499-15.755.882-23.232-2.303-11.816-5.03-17.024-15.069-16.404-27.15.885-17.229 13.445-25.324 26.872-27.117 1.889-.252 3.802-.33 4.893-.421zm-10.625 28.942c.002 6.491 4.711 11.256 11.032 11.163 6.414-.094 10.864-4.635 10.87-11.09.006-6.73-4.488-11.353-11.011-11.327-6.424.026-10.894 4.643-10.891 11.254zM124.898 227.687c8.347.207 16.149 2.093 22.721 7.587 5.471 4.574 8.28 10.554 8.894 17.584.701 8.029-.777 15.499-6.161 21.8-4.613 5.399-10.637 8.37-17.495 9.808-8.131 1.705-16.098 1.192-23.808-1.964-12.793-5.237-17.86-16.442-16.621-29.008 1.387-14.061 11.271-22.458 24.302-25.001 2.692-.526 5.414-.813 8.168-.806zm-.332 17.679c-6.521-.052-11.079 4.504-11.209 11.206-.122 6.297 4.709 11.193 11.052 11.198 6.311.005 10.922-4.62 10.994-11.023.071-6.525-4.505-11.331-10.837-11.381zM274.393 233.976c6.577-6.417 14.392-7.493 22.69-5.266 7.525 2.019 11.055 7.669 12.453 14.944.374 1.946.49 3.913.487 5.895-.015 10.775-.032 23.51.022 34.285h-20.25s.024-29.228-.35-31.534c-.127-5.061-4.05-6.281-7.496-6.285-3.897-.02-7.557 2.587-7.564 7.026 0 0 .007 7.975.007 15.102-.041 4.653-.076 11.038 0 15.691h-20.336c.044-17.024.048-37.288-.004-54.31h20.339l.002 4.452z"/><path d="M187.678 227.736c9.484-.469 20.247 2.664 20.247 2.664l-3.54 15.164s-12.27-4.305-20.789-2.602c-.5.073-.991.217-1.477.361-1.196.352-2.131 1.053-2.117 2.376.015 1.37 1.077 1.965 2.256 2.232 4.286.971 8.702 1.219 12.966 2.325 2.285.592 4.529 1.287 6.664 2.303 5.91 2.81 8.542 7.408 8.347 13.941-.231 7.737-4.191 12.708-11.07 15.671-5.545 2.387-11.437 2.988-17.373 3.118-12.183.649-23.425-3.393-23.425-3.393 1.174-4.23 4.085-15.747 4.085-15.747 6.601 2.54 15.016 4.613 22.151 4.08.965-.073 1.902-.244 2.778-.636.985-.439 1.68-1.116 1.668-2.321-.011-1.215-.72-1.856-1.741-2.248-2.223-.852-4.584-1.04-6.913-1.347-4.05-.533-8.053-1.262-11.859-2.792-11-4.424-13.288-18.58-4.27-26.388 4.953-4.288 11.002-5.676 17.279-6.369 2.212-.243 4.447-.289 6.133-.392zM213.913 250.481c0-10.459.032-22.713-.036-33.172h20.186c-.093 2.931-.053 12.214-.053 12.214l18.524-.008c-2.616 4.736-6.519 12.137-9.05 16.92h-9.451c.062 11.032.002 26.366.001 37.399h-20.159c.074-10.458.038-22.895.038-33.353zM403.759 235.358c4.582-6.167 10.665-6.985 17.221-6.481 1.192.091 1.715.247 1.715.247-.2 5.153-.359 13.616-.45 18.772 0 0-.352-.115-1.562-.428a20.874 20.874 0 0 0-7.014-.574c-6.612.562-9.874 4.052-9.901 10.69-.033 8.03-.051 18.219.027 26.248h-20.092c.051-17.016.045-37.295.008-54.31h20.068c0 .001-.02.001-.02 5.836z"/></g></svg>