<?xml version="1.0" encoding="utf-8"?>
<!-- Generator: Adobe Illustrator 22.1.0, SVG Export Plug-In . SVG Version: 6.00 Build 0)  -->
<svg version="1.1" id="Layer_1" xmlns="http://www.w3.org/2000/svg" xmlns:xlink="http://www.w3.org/1999/xlink" x="0px"
	 y="0px"
	 width="301.6px" height="290.2px" viewBox="0 0 301.6 290.2" style="enable-background:new 0 0 301.6 290.2;"
	 xml:space="preserve"
>
<g>
	<g>
		<path d="M284,56l-5.4-2.4c-0.2-0.1-0.4-0.2-0.6-0.3l-16.1-7.1c-0.2-0.1-0.3-0.1-0.5-0.2l-0.6-0.3h-0.1c-2.5-0.7-5.8-0.6-8,0.4
			l-138,60c-2.5,1.1-4.6,4.2-4.6,7V124v5.8v23c0,2.8-2,4.1-4.6,2.9l-35.7-16.2c-2.5-1.1-4.6-4.3-4.6-7.1v-5.5v-12.5v-11.1v-5.2V98
			c0-2.8,2-6,4.5-7.1l137.6-64.7c0.5-0.2,1-0.4,1.6-0.5l2.9-1.6L162.6,2.2c-6.6-2.9-17.4-2.9-24,0L17.5,56C7.8,60.3,0,72.5,0,83
			l0.3,126.4c0,10.7,8.1,22.9,17.9,27.1l121,51.7c6.4,2.7,16.8,2.7,23.2,0l121-51.7c9.8-4.2,17.9-16.4,17.9-27.1L301.6,83
			C301.5,72.5,293.6,60.3,284,56z M247.1,170.8l-12.1,5.6l0.8,37.6c0,3.8-3.2,8.4-7.3,10.1l-18.1,7.8c-4,1.7-7.2,0-7.3-3.8
			l-1.1-36.5l-11.7,5.4c-5.5,2.6-9-1.6-6.4-7.6l27.5-60.6c2.8-6.1,9.9-9.6,12.7-6.2l29.3,34.3C256.4,160.4,252.9,168.1,247.1,170.8z
			"/>
	</g>
</g>
</svg>
