<?xml version="1.0" encoding="utf-8"?>
<!-- Generator: Adobe Illustrator 21.1.0, SVG Export Plug-In . SVG Version: 6.00 Build 0)  -->
<svg version="1.1" id="Layer_1" xmlns="http://www.w3.org/2000/svg" xmlns:xlink="http://www.w3.org/1999/xlink" x="0px"
	 y="0px"
	 width="544.2px" height="544.2px" viewBox="0 0 544.2 544.2" style="enable-background:new 0 0 544.2 544.2;"
	 xml:space="preserve"
>
<style type="text/css">
	.st0{fill:#2F527A;}
	.st1{fill:#FFFFFF;}
</style>
	<g>
	<path class="st0"
		  d="M272.1,0C2.1,0,0,121.8,0,272.1s2.1,272.1,272.1,272.1s272.1-121.8,272.1-272.1S542.1,0,272.1,0z"/>
		<g>
		<path class="st1" d="M405.4,183l-5.4-2.4c-0.2-0.1-0.4-0.2-0.6-0.3l-16.1-7.1c-0.2-0.1-0.3-0.1-0.5-0.2l-0.6-0.3l-0.1,0
			c-2.5-0.7-5.8-0.6-8,0.4l-138,60c-2.5,1.1-4.6,4.2-4.6,7v10.9v5.8v23c0,2.8-2,4.1-4.6,2.9l-35.7-16.2c-2.5-1.1-4.6-4.3-4.6-7.1
			v-5.5v-12.5v-11.1v-5.2V225c0-2.8,2-6,4.5-7.1l137.6-64.7c0.5-0.2,1-0.4,1.6-0.5l2.9-1.6l-49.2-21.9c-6.6-2.9-17.4-2.9-24,0
			L138.9,183c-9.7,4.3-17.5,16.5-17.5,27l0.3,126.4c0,10.7,8.1,22.9,17.9,27.1l121,51.7c6.4,2.7,16.8,2.7,23.2,0l121-51.7
			c9.8-4.2,17.9-16.4,17.9-27.1l0.3-126.4C422.9,199.5,415,187.3,405.4,183z M368.5,297.8l-12.1,5.6l0.8,37.6
			c0,3.8-3.2,8.4-7.3,10.1l-18.1,7.8c-4,1.7-7.2,0-7.3-3.8l-1.1-36.5l-11.7,5.4c-5.5,2.6-9-1.6-6.4-7.6l27.5-60.6
			c2.8-6.1,9.9-9.6,12.7-6.2l29.3,34.3C377.8,287.4,374.3,295.1,368.5,297.8z"/>
	</g>
</g>
</svg>
